<mxfile host="app.diagrams.net" modified="2021-07-06T14:51:18.291Z" agent="5.0 (Macintosh; Intel Mac OS X 10_15_7) AppleWebKit/537.36 (KHTML, like Gecko) Chrome/91.0.4472.114 Safari/537.36 Edg/91.0.864.54" etag="hdATmwkDR-Uk1uJjydF5" version="14.8.4" type="github">
  <diagram id="4FbR9pomIaIVxxBciywS" name="Page-1">
    <mxGraphModel dx="2866" dy="1154" grid="0" gridSize="10" guides="1" tooltips="1" connect="1" arrows="1" fold="1" page="0" pageScale="1" pageWidth="827" pageHeight="1169" math="0" shadow="0">
      <root>
        <mxCell id="0" />
        <mxCell id="1" parent="0" />
        <mxCell id="udFPGeZrtBHDWeZ5HIYq-1" value="&lt;b&gt;&lt;font style=&quot;font-size: 26px&quot;&gt;StrategyManager&lt;/font&gt;&lt;/b&gt;" style="rounded=1;whiteSpace=wrap;html=1;verticalAlign=top;fillColor=#d5e8d4;strokeColor=#82b366;" vertex="1" parent="1">
          <mxGeometry x="-757" y="24" width="378" height="701" as="geometry" />
        </mxCell>
        <mxCell id="udFPGeZrtBHDWeZ5HIYq-2" value="" style="group" vertex="1" connectable="0" parent="1">
          <mxGeometry x="-683" y="86" width="230" height="584" as="geometry" />
        </mxCell>
        <mxCell id="udFPGeZrtBHDWeZ5HIYq-3" value="" style="group" vertex="1" connectable="0" parent="udFPGeZrtBHDWeZ5HIYq-2">
          <mxGeometry y="56" width="230" height="528" as="geometry" />
        </mxCell>
        <mxCell id="udFPGeZrtBHDWeZ5HIYq-4" value="" style="group" vertex="1" connectable="0" parent="udFPGeZrtBHDWeZ5HIYq-3">
          <mxGeometry width="230" height="528" as="geometry" />
        </mxCell>
        <mxCell id="udFPGeZrtBHDWeZ5HIYq-5" value="1：独唱（音频/视频）&#xa;Normal_Recording/Filter_Recording" style="rounded=0;whiteSpace=wrap;html=1;" vertex="1" parent="udFPGeZrtBHDWeZ5HIYq-4">
          <mxGeometry width="230" height="53" as="geometry" />
        </mxCell>
        <mxCell id="udFPGeZrtBHDWeZ5HIYq-6" value="&lt;div&gt;2：发起合唱（音频/视频）&lt;/div&gt;&lt;div&gt;SponsorChorus_Recording&lt;/div&gt;" style="rounded=0;whiteSpace=wrap;html=1;" vertex="1" parent="udFPGeZrtBHDWeZ5HIYq-4">
          <mxGeometry y="67" width="230" height="53" as="geometry" />
        </mxCell>
        <mxCell id="udFPGeZrtBHDWeZ5HIYq-7" value="&lt;div&gt;3：加入合唱（音频/视频）&lt;/div&gt;&lt;div&gt;JoinChorus_Recording&lt;/div&gt;" style="rounded=0;whiteSpace=wrap;html=1;" vertex="1" parent="udFPGeZrtBHDWeZ5HIYq-4">
          <mxGeometry y="134" width="230" height="53" as="geometry" />
        </mxCell>
        <mxCell id="udFPGeZrtBHDWeZ5HIYq-8" value="&lt;div&gt;4：加入支持和唱的独唱（音频）&lt;/div&gt;&lt;div&gt;JoinNormalUgcChorus_Recording&lt;/div&gt;" style="rounded=0;whiteSpace=wrap;html=1;" vertex="1" parent="udFPGeZrtBHDWeZ5HIYq-4">
          <mxGeometry y="201" width="230" height="53" as="geometry" />
        </mxCell>
        <mxCell id="udFPGeZrtBHDWeZ5HIYq-9" value="&lt;div&gt;5：截取片段唱（音频）&lt;/div&gt;&lt;div&gt;Capture_Recording&lt;/div&gt;" style="rounded=0;whiteSpace=wrap;html=1;" vertex="1" parent="udFPGeZrtBHDWeZ5HIYq-4">
          <mxGeometry y="271" width="230" height="53" as="geometry" />
        </mxCell>
        <mxCell id="udFPGeZrtBHDWeZ5HIYq-10" value="&lt;div&gt;6：添加视频&lt;/div&gt;&lt;div&gt;addVideoScenario&lt;/div&gt;" style="rounded=0;whiteSpace=wrap;html=1;" vertex="1" parent="udFPGeZrtBHDWeZ5HIYq-4">
          <mxGeometry y="341" width="230" height="53" as="geometry" />
        </mxCell>
        <mxCell id="udFPGeZrtBHDWeZ5HIYq-11" value="&lt;div&gt;7：短MV加入&lt;/div&gt;&lt;div&gt;JoinChorus_HookMV&lt;/div&gt;" style="rounded=0;whiteSpace=wrap;html=1;" vertex="1" parent="udFPGeZrtBHDWeZ5HIYq-4">
          <mxGeometry y="408" width="230" height="53" as="geometry" />
        </mxCell>
        <mxCell id="udFPGeZrtBHDWeZ5HIYq-12" value="&lt;div&gt;8：短MV发起&lt;/div&gt;&lt;div&gt;SponsorChorus_HookMV&lt;/div&gt;" style="rounded=0;whiteSpace=wrap;html=1;" vertex="1" parent="udFPGeZrtBHDWeZ5HIYq-4">
          <mxGeometry y="475" width="230" height="53" as="geometry" />
        </mxCell>
        <mxCell id="udFPGeZrtBHDWeZ5HIYq-13" value="&lt;b&gt;&lt;font style=&quot;font-size: 20px&quot;&gt;RecoringRouter&lt;/font&gt;&lt;/b&gt;" style="rounded=1;whiteSpace=wrap;html=1;" vertex="1" parent="1">
          <mxGeometry x="-334" y="31" width="1361" height="66" as="geometry" />
        </mxCell>
      </root>
    </mxGraphModel>
  </diagram>
</mxfile>
